<svg xmlns="http://www.w3.org/2000/svg" width="339.315" height="321.005" viewBox="0 0 339.315 321.005"><defs><style>.a{fill:#78afdb;}.b{fill:#211715;}.c{fill:#c5ddf0;}.d{fill:#3d8dcc;}.e{fill:#fff;}.f{fill:#8bbbe0;}</style></defs><path class="a" d="M270.147,251.148c.588-.577,1.19-1.119,1.8-1.646v-8.975H253v54.605h12.249C256.355,281.82,257.256,263.8,270.147,251.148Z"/><path class="b" d="M255.4,295.132V240.527l-2.4,2.4h18.941l-2.4-2.4v6.653c0,3.088,4.8,3.094,4.8,0v-6.653a2.435,2.435,0,0,0-2.4-2.4H253a2.435,2.435,0,0,0-2.4,2.4v54.605c0,3.089,4.8,3.094,4.8,0Z"/><path class="c" d="M221.352,295.132V257.811h18.941v37.321"/><path class="b" d="M223.752,295.132V257.811l-2.4,2.4h18.941l-2.4-2.4v37.321c0,3.089,4.8,3.094,4.8,0V257.811a2.435,2.435,0,0,0-2.4-2.4H221.352a2.434,2.434,0,0,0-2.4,2.4v37.321c0,3.089,4.8,3.094,4.8,0Z"/><path class="d" d="M284.656,231.924v-3.232h18.933v13.946H284.656Z"/><path class="b" d="M287.056,240.9V228.692l-2.4,2.4h18.933l-2.4-2.4v11.867c0,3.089,4.8,3.094,4.8,0V228.692a2.435,2.435,0,0,0-2.4-2.4H284.656a2.434,2.434,0,0,0-2.4,2.4V240.9c0,3.089,4.8,3.094,4.8,0Z"/><path class="b" d="M203.543,218.163v76.968a2.435,2.435,0,0,0,2.4,2.4h59.306c3.088,0,3.093-4.8,0-4.8H205.943l2.4,2.4V218.163c0-3.088-4.8-3.093-4.8,0Z"/><path class="d" d="M318.924,291.079l16.042,16.042a6.753,6.753,0,0,1-9.554,9.545l-16.078-16.078"/><path class="b" d="M317.227,292.776q7.847,7.846,15.694,15.694a4.562,4.562,0,0,1,1.226,5.27,4.415,4.415,0,0,1-7.078,1.188c-2.592-2.5-5.1-5.1-7.647-7.646l-8.391-8.391c-2.187-2.187-5.582,1.206-3.394,3.394,5.352,5.352,10.6,10.841,16.068,16.068a9.157,9.157,0,0,0,14.4-11.054,18.336,18.336,0,0,0-3.125-3.555l-5.029-5.029-9.333-9.333c-2.187-2.187-5.582,1.206-3.394,3.394Z"/><path class="e" d="M276.159,257.264a26.8,26.8,0,0,1,38.535.237c11.481,11.7,11.244,27.743-.119,38.9-11.8,11.584-27.485,11.02-38.892-.6A26.778,26.778,0,0,1,276.159,257.264Z"/><path class="b" d="M277.856,258.961c7.39-7.163,18.408-9.55,27.834-5s16.027,14.844,14.994,25.434c-1.024,10.5-10.011,19.959-20.111,22.406-10.282,2.49-21.08-3.244-26.568-11.948a24.8,24.8,0,0,1-3.737-15.761,25.211,25.211,0,0,1,7.588-15.135c2.194-2.181-1.2-5.576-3.394-3.394a30.14,30.14,0,0,0-8.681,16.195,29.551,29.551,0,0,0,2.271,17.162c4.953,10.95,17.182,19.177,29.358,18.2,12.627-1.008,24.2-11.088,27.327-23.325,3.128-12.256-2.909-25.058-13.177-32a29.147,29.147,0,0,0-18.38-4.913,30.332,30.332,0,0,0-18.718,8.675C272.24,257.72,275.636,261.113,277.856,258.961Z"/><path class="e" d="M74.5,302.439c0-1.612,0-3.265,0-4.917l-25.738.01q.008,10.295.005,20.589H74.5S74.5,310.842,74.5,302.439Z"/><path class="e" d="M5.256,218.758a3.3,3.3,0,0,0-2.813,3.269c.006,16.078.016,40.007.024,60.425,57.768,0,116,0,116,0h1.968c-.007-20.431-.017-44.382-.023-60.462a3.3,3.3,0,0,0-3.3-3.3l-111.365.04A3.39,3.39,0,0,0,5.256,218.758Z"/><path class="e" d="M120.434,282.447c0,4.085.009,8.039.009,11.757a3.3,3.3,0,0,1-3.3,3.3c-22.677.01-88.308.029-111.371.038a3.292,3.292,0,0,1-3.295-3.3c0-3.737-.009-7.7,0-11.8H120.434Z"/><path class="b" d="M.043,222.027q.009,24.641.02,49.281,0,6.428.005,12.854,0,3.1,0,6.2c0,1.857-.3,4.045.347,5.815a5.771,5.771,0,0,0,5.018,3.76c1.008.079,2.041.016,3.052.016l6.966,0L53.2,299.93l40.956-.015,16.437-.006c2.125,0,4.253.034,6.377,0a5.869,5.869,0,0,0,5.066-2.782c1.058-1.77.807-3.9.806-5.875q-.009-25.709-.02-51.418,0-5.939,0-11.877c0-3.538.885-8.218-2.393-10.591-1.854-1.342-4.174-1.081-6.339-1.08l-5.385,0-32.8.012-38.93.014-29.837.01a8.255,8.255,0,0,0-4.023.658,5.861,5.861,0,0,0-3.058,5.047c-.154,3.088,4.646,3.08,4.8,0,.073-1.468,3.193-.9,4.225-.906l6.051,0,15.13,0,36.984-.013,34.315-.013,12.074,0h2.147c.57,0,1.526-.182,1.973.235a1.43,1.43,0,0,1,.268,1.141c-.017.812,0,1.625,0,2.437l0,5.354q.01,24.624.02,49.25,0,5.875,0,11.75c0,.918.055,1.855,0,2.771-.026.446-.094.814-.536,1.014a7.656,7.656,0,0,1-2.648.072l-14.2,0-38.214.015-38.634.015-14.719.006c-.956,0-1.916.023-2.872,0-1.389-.032-1.345-.724-1.346-2q0-5.791,0-11.582-.01-24.732-.02-49.462,0-5.04,0-10.081C4.842,218.939.042,218.934.043,222.027Z"/><path class="b" d="M46.365,297.412v20.709c0,3.089,4.8,3.094,4.8,0V297.412c0-3.089-4.8-3.094-4.8,0Z"/><path class="b" d="M72.1,297.763v20.358c0,3.089,4.8,3.094,4.8,0V297.763c0-3.089-4.8-3.094-4.8,0Z"/><path class="b" d="M38.933,320.521H84.745c3.089,0,3.094-4.8,0-4.8H38.933c-3.089,0-3.094,4.8,0,4.8Z"/><path class="b" d="M3.83,284.847H118.465c3.089,0,3.094-4.8,0-4.8H3.83c-3.089,0-3.094,4.8,0,4.8Z"/><path class="a" d="M54.064,267.553v-21.14H68.821v21.14Z"/><path class="b" d="M56.464,267.553v-21.14l-2.4,2.4H68.821l-2.4-2.4v21.14l2.4-2.4H54.064c-3.088,0-3.093,4.8,0,4.8H68.821a2.434,2.434,0,0,0,2.4-2.4v-21.14a2.435,2.435,0,0,0-2.4-2.4H54.064a2.435,2.435,0,0,0-2.4,2.4v21.14C51.664,270.642,56.464,270.647,56.464,267.553Z"/><path class="c" d="M29.935,267.553V257.279H44.692v10.274Z"/><path class="b" d="M32.335,267.553V257.279l-2.4,2.4H44.692l-2.4-2.4v10.274l2.4-2.4H29.935a2.4,2.4,0,0,0,0,4.8H44.692a2.435,2.435,0,0,0,2.4-2.4V257.279a2.435,2.435,0,0,0-2.4-2.4H29.935a2.435,2.435,0,0,0-2.4,2.4v10.274a2.4,2.4,0,0,0,4.8,0Z"/><path class="d" d="M78.2,267.553V235.547H92.946v32.006Z"/><path class="b" d="M80.6,267.553V235.547l-2.4,2.4H92.946l-2.4-2.4v32.006l2.4-2.4H78.2c-3.089,0-3.094,4.8,0,4.8H92.946a2.434,2.434,0,0,0,2.4-2.4V235.547a2.435,2.435,0,0,0-2.4-2.4H78.2a2.435,2.435,0,0,0-2.4,2.4v32.006C75.8,270.642,80.6,270.647,80.6,267.553Z"/><path class="f" d="M324.307,42.406a56.676,56.676,0,0,1,2.136,15.485c0,22.759-10.477,40.757-28.025,49.623l-.248-.5c-1.943-3.544-6.979-12.677-12.181-22.142,9.455-4.778,15.1-14.491,15.1-26.754a30.133,30.133,0,0,0-1.16-8.341C310.221,46.677,320.238,43.639,324.307,42.406Z"/><path class="c" d="M298.17,107.017l.248.5a59.112,59.112,0,0,1-26.975,6.058c-31.873,0-54.761-22.473-54.991-55.175h25.355c.12,17.631,12.466,29.747,29.636,29.747a31.847,31.847,0,0,0,14.546-3.269C291.191,94.34,296.227,103.473,298.17,107.017Z"/><path class="e" d="M271.434,3.232V28.66A29.074,29.074,0,0,0,241.8,58.121c0,.092,0,.184.009.276H216.452c-.009-.165-.009-.34-.009-.506C216.443,28.412,238.925,3.241,271.434,3.232Z"/><path class="d" d="M324.307,42.406c-4.069,1.233-14.086,4.271-24.379,7.374-3.406-12.07-14.169-21.12-28.485-21.12h-.009V3.232h.009C298,3.232,317.973,20.015,324.307,42.406Z"/><path class="b" d="M216.452,60.8h25.355c3.089,0,3.094-4.8,0-4.8H216.452c-3.088,0-3.094,4.8,0,4.8Z"/><path class="b" d="M269.034,3.232V28.66c0,3.089,4.8,3.094,4.8,0V3.232c0-3.089-4.8-3.094-4.8,0Z"/><path class="b" d="M300.566,52.094q12.194-3.675,24.379-7.374c2.948-.894,1.692-5.528-1.276-4.629q-12.187,3.7-24.379,7.375c-2.95.889-1.693,5.523,1.276,4.628Z"/><path class="b" d="M283.917,86.087Q290,97.16,296.1,108.229c1.485,2.709,5.632.29,4.145-2.423q-6.074-11.08-12.18-22.142c-1.489-2.708-5.635-.289-4.145,2.423Z"/><path class="b" d="M284.778,82.8c-10.193,5.095-24.079,3.755-32.42-4.2-7.729-7.37-10.039-19.478-6.687-29.495a26.793,26.793,0,0,1,24.3-18.016A28.317,28.317,0,0,1,286.4,35.258a26.33,26.33,0,0,1,10.139,12.031c4.637,11.046,1.909,25.912-8.024,33.228a27.35,27.35,0,0,1-3.737,2.286c-2.749,1.411-.323,5.554,2.423,4.145,12.994-6.669,18.62-22.363,15.444-36.242a31.509,31.509,0,0,0-9.655-16.457,32.176,32.176,0,0,0-18.2-7.82c-12.88-1.317-25.8,5.084-31.778,16.718-5.776,11.249-4.6,25.844,3.23,35.836,8.236,10.516,23.073,13.849,35.59,10.114a33.446,33.446,0,0,0,5.365-2.149C289.964,85.566,287.536,81.424,284.778,82.8Z"/><path class="b" d="M326.621,41.768a56.42,56.42,0,0,0-19.576-29.13,59.669,59.669,0,0,0-69.294-1.4,56.565,56.565,0,0,0-20.393,27.132,62.589,62.589,0,0,0-1.452,35.421,54.933,54.933,0,0,0,16.9,28.415,56.984,56.984,0,0,0,30.81,13.3,63.923,63.923,0,0,0,34.828-5.324,51.682,51.682,0,0,0,22.943-21.6,63.347,63.347,0,0,0,7.3-34.908,60.622,60.622,0,0,0-2.068-11.907c-.831-2.971-5.463-1.709-4.628,1.276a59.765,59.765,0,0,1-1.7,36.516,47.565,47.565,0,0,1-17.639,22.693c-8.883,6.008-19.48,8.754-30.151,8.911a55.51,55.51,0,0,1-30.621-8.13,48.4,48.4,0,0,1-18.852-22.711,58.835,58.835,0,0,1-3.276-32.446,51.14,51.14,0,0,1,43.708-41.72,55.293,55.293,0,0,1,33.828,5.817,51.191,51.191,0,0,1,21.959,23.569,51.889,51.889,0,0,1,2.742,7.5C322.841,46.008,327.474,44.748,326.621,41.768Z"/><path class="d" d="M17.846,15.922c0,26.08.069,59.1.071,83.994A2.061,2.061,0,0,0,20,101.981c21.178-.181,59.556-.282,84.2-.373a2.065,2.065,0,0,0,2.063-2.066c-.006-24.742-.157-57.659-.157-83.836a2.065,2.065,0,0,0-2.071-2.066c-11.349.011-63.716.076-84.135.217A2.066,2.066,0,0,0,17.846,15.922Z"/><path class="e" d="M36.179,34.372c0,14.707.039,32.91.042,47a2.283,2.283,0,0,0,2.313,2.29c12.267-.1,33.088-.155,47.109-.206a2.286,2.286,0,0,0,2.29-2.291c-.007-14.005-.087-32.152-.091-46.909a2.28,2.28,0,0,0-2.293-2.291c-8.124.008-35.074.045-47.088.118A2.286,2.286,0,0,0,36.179,34.372Z"/><path class="b" d="M33.779,34.372q0,12.087.021,24.175.008,6.121.014,12.244,0,2.915.005,5.831a28.435,28.435,0,0,0,.113,5.727,4.734,4.734,0,0,0,4.259,3.687c1.458.12,2.968,0,4.43-.007q5.1-.033,10.2-.055,11.274-.051,22.546-.085c3.415-.012,6.862.114,10.274-.036a4.813,4.813,0,0,0,4.508-3.389c.512-1.712.18-3.891.178-5.661q-.016-12.205-.057-24.412-.017-6.15-.025-12.3c0-3.545,1.029-9.029-3.395-10.348a11.461,11.461,0,0,0-3.207-.179l-3.078,0-7.854.011q-9.423.017-18.846.041-4.45.012-8.9.029-1.931.008-3.861.017a15.5,15.5,0,0,0-3.943.2,4.813,4.813,0,0,0-3.383,4.506,2.4,2.4,0,0,0,4.8,0c-.016.223-.317.005.107.107a7.619,7.619,0,0,0,1.66-.009l3.326-.016q4.014-.017,8.028-.028,8.661-.026,17.323-.04,7.113-.014,14.224-.022a14.385,14.385,0,0,1,2.3,0c-.179-.031-.07-.34-.107.3-.052.888,0,1.8,0,2.685q.006,5.628.02,11.256.026,11.287.056,22.575.006,2.712.01,5.424l0,2.411a9.634,9.634,0,0,1-.024,2.183c.011-.041.234-.161.147-.147a5.761,5.761,0,0,1-.862.009l-2.279.008-4.823.017q-10.256.034-20.513.074-5.008.021-10.018.048-2.185.01-4.371.025l-2.117.014a7.785,7.785,0,0,0-1.99.015c-.152.05-.275-.1-.107.063s-.014.063.046-.144a11.346,11.346,0,0,0,0-2.744q0-2.555,0-5.109,0-5.614-.012-11.23-.014-11.186-.023-22.373,0-2.675,0-5.348C38.579,31.283,33.779,31.278,33.779,34.372Z"/><path class="b" d="M15.446,15.922c0,27.747.067,55.494.071,83.241a4.936,4.936,0,0,0,2.041,4.5c1.334.869,2.9.715,4.414.7q3.7-.03,7.409-.053,8.763-.055,17.526-.093,19.269-.088,38.537-.146,8.9-.03,17.793-.062a5.4,5.4,0,0,0,4.124-1.313c1.4-1.4,1.307-3.218,1.306-5.046q0-4.933-.012-9.867-.034-21.223-.1-42.447-.025-10.547-.039-21.093,0-2.465,0-4.929c0-1.745.322-3.858-.434-5.476-1.081-2.31-3.249-2.6-5.51-2.6q-11.157.011-22.316.03c-19.577.032-39.154.052-58.731.174a8.055,8.055,0,0,0-3.479.447,4.585,4.585,0,0,0-2.6,4.029,2.419,2.419,0,0,0,2.4,2.4,2.448,2.448,0,0,0,2.4-2.4c-.033.407-.583.273.051.332.4.037.822-.005,1.223-.008l2.641-.015,5.7-.028q6.831-.028,13.662-.049,15.159-.046,30.318-.071,12.211-.022,24.423-.037l3.949,0a12.261,12.261,0,0,0,1.485,0c.322-.04.473.153.1-.1-.2-.134.01-.593-.1.163a11.688,11.688,0,0,0,0,1.6q0,9.876.026,19.753.042,20.373.1,40.747.021,9.534.029,19.069a10.739,10.739,0,0,0,0,2.271c-.383-.214.989-.184.016-.333a26.782,26.782,0,0,0-3.965.014l-8.487.03c-23.153.078-46.307.128-69.459.312a10.9,10.9,0,0,0-1.7.014c-.752.129.372.194.041.337a13.141,13.141,0,0,0,0-2.274q0-1.156,0-2.315,0-4.814-.006-9.629Q20.3,75.77,20.289,65.84q-.026-20.31-.041-40.62,0-4.648,0-9.3C20.246,12.834,15.446,12.829,15.446,15.922Z"/><path class="b" d="M25.977,2.4c0,3.386.067,6.771.068,10.157a2.4,2.4,0,0,0,4.8,0c0-3.386-.067-6.771-.068-10.157a2.4,2.4,0,0,0-4.8,0Z"/><path class="b" d="M48,2.4c0,3.386.067,6.771.068,10.157a2.4,2.4,0,1,0,4.8,0c0-3.386-.067-6.771-.068-10.157a2.4,2.4,0,1,0-4.8,0Z"/><path class="b" d="M70.02,2.4c0,3.386.066,6.771.068,10.157a2.4,2.4,0,0,0,4.8,0c0-3.386-.067-6.771-.068-10.157a2.4,2.4,0,1,0-4.8,0Z"/><path class="b" d="M92.041,2.4c0,3.386.067,6.771.068,10.157a2.4,2.4,0,0,0,4.8,0c0-3.386-.067-6.771-.068-10.157a2.4,2.4,0,1,0-4.8,0Z"/><path class="b" d="M25.977,104.245c0,3.386.067,6.771.068,10.157a2.4,2.4,0,1,0,4.8,0c0-3.386-.067-6.771-.068-10.157a2.4,2.4,0,0,0-4.8,0Z"/><path class="b" d="M48,104.245c0,3.386.067,6.771.068,10.157a2.4,2.4,0,1,0,4.8,0c0-3.386-.067-6.771-.068-10.157a2.4,2.4,0,1,0-4.8,0Z"/><path class="b" d="M70.02,104.245c0,3.386.066,6.771.068,10.157a2.4,2.4,0,0,0,4.8,0c0-3.386-.067-6.771-.068-10.157a2.4,2.4,0,1,0-4.8,0Z"/><path class="b" d="M92.041,104.245c0,3.386.067,6.771.068,10.157a2.4,2.4,0,0,0,4.8,0c0-3.386-.067-6.771-.068-10.157a2.4,2.4,0,1,0-4.8,0Z"/><path class="b" d="M117.443,22.936c-3.386,0-6.771.067-10.157.068a2.4,2.4,0,0,0,0,4.8c3.386,0,6.771-.067,10.157-.068a2.4,2.4,0,1,0,0-4.8Z"/><path class="b" d="M117.443,44.957c-3.386,0-6.771.067-10.157.068a2.4,2.4,0,0,0,0,4.8c3.386,0,6.771-.066,10.157-.068a2.4,2.4,0,1,0,0-4.8Z"/><path class="b" d="M117.443,66.979c-3.386,0-6.771.067-10.157.068a2.4,2.4,0,0,0,0,4.8c3.386,0,6.771-.067,10.157-.068a2.4,2.4,0,0,0,0-4.8Z"/><path class="b" d="M117.443,89c-3.386,0-6.771.067-10.157.068a2.4,2.4,0,0,0,0,4.8c3.386,0,6.771-.067,10.157-.068a2.4,2.4,0,0,0,0-4.8Z"/><path class="b" d="M15.6,22.936c-3.386,0-6.771.067-10.157.068a2.4,2.4,0,0,0,0,4.8c3.386,0,6.771-.067,10.157-.068a2.4,2.4,0,0,0,0-4.8Z"/><path class="b" d="M15.6,44.957c-3.386,0-6.771.067-10.157.068a2.4,2.4,0,1,0,0,4.8c3.386,0,6.771-.066,10.157-.068a2.4,2.4,0,1,0,0-4.8Z"/><path class="b" d="M15.6,66.979c-3.386,0-6.771.067-10.157.068a2.4,2.4,0,1,0,0,4.8c3.386,0,6.771-.067,10.157-.068a2.4,2.4,0,0,0,0-4.8Z"/><path class="b" d="M15.6,89c-3.386,0-6.771.067-10.157.068a2.4,2.4,0,0,0,0,4.8c3.386,0,6.771-.067,10.157-.068a2.4,2.4,0,1,0,0-4.8Z"/></svg>