<?xml version="1.0" encoding="UTF-8"?><svg id="b" xmlns="http://www.w3.org/2000/svg" width="265.472" height="224.62" viewBox="0 0 265.472 224.62"><defs><style>.e{fill:#fff;}.e,.f,.g,.h{stroke-width:0px;}.f{fill:#3d8dcc;}.g{fill:#febe69;}.h{fill:#211715;}</style></defs><g id="c"><g id="d"><path class="g" d="m130.659,146.914c-15.341,0-34.139-6.28-40.177-17.495-5.273-9.793-4.032-21.337-2.116-32.394,4.825-26.515,2.17-56.414,23.401-76.739,7.89-7.553,25.668-17.844,45.643-17.844,12.183,0,20.761,2.216,28.995,5.554,0,0,2.215.898,4.43,1.796,2.23,1.305,4.46,2.611,4.46,2.611,3.852,2.255,5.226,4.187,9.19,7.985,9.922,9.507,15.49,23.81,17.441,37.191,1.948,13.357,3.754,26.749,6.493,39.975,2.483,11.989,3.765,23.821-4.137,34.297-9.441,12.516-26.386,15.706-41.583,15.706l-52.043-.643Z"/><path class="e" d="m171.811,54.802c-6.747,4.664-14.232,8.675-27.901,15.167-12.766,6.064-26.801,9.944-37.771,13.363-1.354-.763-2.876-1.063-4.235-1.02-4.094.128-5.845,2.336-6.6,3.633-2.253,3.872-2.186,11.023-.701,15.453,1.051,3.137,2.775,7.937,6.963,11.391,1.856,1.531,4.659,2.506,7.258,1.847,1.878,6.472,5.293,14.286,11.316,21.552,4.662,5.625,9.566,9.817,15.034,12.449-.022,2.069.027,3.036-.181,5.888-.101,1.381-.208,2.874-.72,4.222-.686,1.772-1.61,3.307-3.095,4.505-1.217.98-2.447,1.763-3.729,2.44.782,3.317,1.592,6.643,2.43,9.973,8.624,4.515,18.413,6.563,28.225,6.299,9.814.264,19.604-1.785,28.233-6.301.879-3.517,1.732-7.029,2.552-10.529-.927-.544-1.832-1.159-2.729-1.882-1.485-1.198-2.408-2.733-3.095-4.505-.512-1.348-.619-2.84-.72-4.222-.224-3.073-.15-3.958-.191-6.398,11.705-6.486,20.943-22.281,22.642-26.837.588-1.213,1.552-3.711,2.335-6.262.41.071.644.111.644.111,2.434.421,4.985-.502,6.722-1.912,4.214-3.421,5.975-8.207,7.051-11.336,1.519-4.419,1.642-11.569-.581-15.458-.745-1.303-2.478-3.524-6.571-3.684-2.493-.098-5.547.954-7.1,3.925-4.32-14.306-13.749-29.95-24.203-40.61-4.132,3.448-7.596,6.19-11.281,8.737Z"/><path class="h" d="m181.395,44.368c-6.321,5.27-12.789,10.029-20.061,14.108-10.4,5.833-21.286,11.081-32.517,15.094-6.601,2.359-13.314,4.383-20.016,6.433-2.945.901-1.689,5.536,1.276,4.629,12.531-3.833,24.96-7.766,36.808-13.431,9.022-4.313,18.082-8.734,26.316-14.451,4.017-2.789,7.834-5.858,11.588-8.988.996-.831.858-2.536,0-3.394-.986-.986-2.395-.833-3.394,0h0Z"/><path class="h" d="m181.395,47.762c8.75,8.968,15.807,19.886,20.655,31.431.502,1.194,1.587,2.051,2.952,1.676,1.126-.309,2.181-1.75,1.676-2.952-5.183-12.339-12.524-23.95-21.89-33.549-2.161-2.215-5.554,1.181-3.394,3.394h0Z"/><path class="h" d="m205.784,110.685c-.765,3.661-2.125,7.15-3.481,10.42.291-.701.039-.092-.04.077-.103.22-.203.441-.309.661-.245.509-.502,1.013-.767,1.512-.638,1.201-1.32,2.378-2.033,3.536-3.688,5.996-8.177,11.632-13.652,16.093-2.999,2.444-6.417,4.386-10.177,5.236-3.012.682-1.737,5.31,1.276,4.629,7.698-1.742,14.111-7.373,19.139-13.198,4.15-4.808,8.046-10.23,10.668-16.046.164-.364.321-.732.473-1.101.066-.16.351-.807.075-.187.426-.96.836-1.928,1.208-2.911.918-2.422,1.719-4.908,2.249-7.445.63-3.014-3.996-4.303-4.629-1.276h0Z"/><path class="h" d="m105.52,111.391c1.658,7.461,4.664,14.693,8.884,21.07,4.543,6.863,10.524,13.294,17.776,17.326,3.666,2.038,7.667,3.425,11.814,4.053,1.28.194,2.58-.322,2.952-1.676.312-1.134-.387-2.757-1.676-2.952-14.952-2.263-26.139-15.262-31.789-28.572-1.439-3.39-2.534-6.931-3.333-10.524-.67-3.014-5.299-1.739-4.629,1.276h0Z"/><path class="h" d="m109.304,82.728c-3.254-2.977-8.032-3.622-12.02-1.755-2.961,1.386-4.688,4.256-5.462,7.336-1.812,7.208-.027,15.427,4.032,21.592,2.734,4.152,7.095,7.969,12.419,7.253,1.284-.173,2.4-.98,2.4-2.4,0-1.163-1.106-2.574-2.4-2.4-6.277.843-9.688-6.552-11.314-11.471-.929-2.809-1.176-5.789-.935-8.731.115-1.401.38-2.864.929-4.165.166-.393.39-.752.602-1.121.081-.141.327-.462.083-.153.163-.207.343-.403.53-.588,1.84-1.821,5.618-1.946,7.742-.002,2.275,2.082,5.679-1.303,3.394-3.394h0Z"/><path class="h" d="m210.373,86.515c1.924-1.733,5.133-1.84,7.238-.357.609.429.867.761,1.283,1.488.662,1.155.982,2.515,1.18,3.823.825,5.458-.696,11.206-3.58,15.858-1.655,2.669-4.559,6.001-8.082,5.5-1.282-.182-2.578.314-2.952,1.676-.309,1.125.385,2.769,1.676,2.952,9.072,1.291,14.345-7.653,16.775-15.074,1.233-3.764,1.417-7.931.845-11.831-.483-3.299-1.795-6.505-4.609-8.459-3.977-2.763-9.652-2.138-13.169,1.03-2.3,2.072,1.103,5.458,3.394,3.394h0Z"/><path class="h" d="m157.499,103.808c.432,1.649.847,3.323,1.095,5.011l-.086-.638c.029.231.042.459.019.692l.086-.638c-.016.108-.04.208-.076.311l.242-.573c-.032.073-.066.134-.11.2l.375-.486c-.052.063-.1.111-.164.161l.486-.375c-.127.081-.26.147-.397.21l.573-.242c-.218.091-.435.158-.669.195l.638-.086c-.211.025-.417.023-.628-.001l.638.086c-.237-.033-.469-.091-.706-.122-.67-.09-1.239-.115-1.849.242-.498.291-.973.862-1.103,1.434-.14.614-.11,1.304.242,1.849.312.484.835,1.022,1.434,1.103.524.071,1.032.204,1.565.228.809.035,1.564-.211,2.287-.541.89-.407,1.584-1.197,1.82-2.156.2-.811.113-1.53-.024-2.342-.273-1.614-.646-3.214-1.061-4.798-.318-1.214-1.729-2.072-2.952-1.676-1.25.404-2.018,1.651-1.676,2.952h0Z"/><path class="h" d="m130.84,89.662c-.837,2.719-.291,8.975,4.86,9.508,6.809-.041,7.172-7.604,4.879-11.16-1.877-2.912-7.395-4.122-9.74,1.653Z"/><path class="h" d="m185.368,89.662c.837,2.719.292,8.975-4.86,9.507-6.809-.041-7.172-7.604-4.88-11.16,1.877-2.911,7.395-4.122,9.74,1.653Z"/><path class="h" d="m117.307,172.402c4.824-1.893,10.049-3.36,14.272-6.453,2.676-1.96,4.721-4.637,5.4-7.949.568-2.768.576-5.684.591-8.502.016-3.089-4.784-3.093-4.8,0-.012,2.327.03,4.754-.386,7.048-.463,2.546-1.931,4.423-4.045,5.829-3.74,2.487-8.158,3.77-12.308,5.398-1.206.473-2.046,1.608-1.676,2.952.316,1.149,1.739,2.152,2.952,1.676h0Z"/><path class="h" d="m179.768,149.498c.015,2.918-.019,6.005.668,8.854.824,3.417,3.029,6.031,5.867,7.982,4.263,2.931,9.421,4.347,14.198,6.218,1.207.473,2.634-.519,2.952-1.676.374-1.36-.465-2.478-1.676-2.952-4.103-1.607-8.472-2.842-12.228-5.195-2.185-1.369-3.861-3.073-4.484-5.653-.584-2.422-.484-5.095-.497-7.578-.016-3.088-4.816-3.094-4.8,0h0Z"/><path class="e" d="m210.014,113.507c-4.048,0-6.846,2.847-6.846,6.179,0,3.728,2.858,6.295,6.846,6.295,4.142,0,6.846-2.591,6.846-6.295,0-3.354-2.813-6.179-6.846-6.179Z"/><path class="h" d="m210.014,111.107c-3.915.048-7.464,2.206-8.815,5.956-1.271,3.529.22,7.53,3.196,9.658,2.958,2.116,7.301,2.156,10.47.509,3.331-1.731,4.837-5.522,4.234-9.121-.725-4.328-4.935-6.953-9.086-7.003-1.256-.015-2.458,1.115-2.4,2.4.059,1.313,1.054,2.384,2.4,2.4.206.002.41.016.616.022.454.014.054-.005-.043-.02.318.047.632.114.942.201.18.051.355.114.533.172.414.137.008.004-.066-.033.32.16.633.32.931.519.039.026.449.379.177.121-.28-.266.126.124.15.146.15.14.509.42.579.618-.152-.434-.139-.204-.028-.013.07.12.15.234.219.355.065.115.114.265.192.37.076.163.051.099-.075-.191.041.104.079.208.113.314.042.129.277.732.204.814-.003.003-.044-.626-.02-.132.009.172.022.343.022.516,0,.12-.003.241-.009.361-.01.196.087.649.017.061.032.269-.126.652-.203.907-.02.065-.077.367-.132.391.129-.055.225-.433.016-.052-.129.235-.262.463-.402.692-.243.398.059.024.04-.04.006.02-.18.205-.211.239-.109.117-.224.229-.342.337-.059.054-.12.107-.183.158-.137.113-.081.07.166-.127-.049.148-.55.356-.7.437-.134.072-.308.189-.456.222.057-.013.514-.178.091-.051-.287.086-.568.18-.86.246-.182.041-.365.072-.548.102.421-.069.123-.02-.129-.004-.331.021-.664.025-.995.01-.129-.006-.258-.02-.387-.025-.632-.026.497.112-.111-.014-.298-.062-.593-.124-.885-.214-.113-.035-.224-.078-.337-.112-.249-.096-.22-.081.088.046-.105-.047-.208-.096-.31-.148-.252-.129-.484-.284-.724-.432-.233-.144-.146.022.088.076-.106-.025-.291-.252-.369-.328-.078-.076-.155-.154-.229-.234-.028-.03-.397-.425-.128-.132.26.284-.069-.108-.099-.155-.09-.138-.174-.279-.251-.424l-.076-.147c-.111-.237-.098-.198.038.118-.048-.053-.089-.237-.116-.316-.092-.273-.148-.552-.215-.831-.138-.569.006.529-.007-.067-.003-.121-.016-.243-.019-.365-.004-.176-.003-.352.008-.528.005-.085.011-.17.021-.254.019-.186.01-.113-.028.219-.087-.102.224-.861.257-.969.14-.45-.054.103-.053.111-.023-.124.247-.481.312-.588.058-.095.123-.186.181-.281.235-.393-.329.319.089-.11.219-.225.44-.44.67-.654-.439.409-.05.038.069-.042.146-.098.297-.191.451-.277.123-.069.286-.121.398-.206.16-.074.107-.055-.157.059.115-.046.23-.088.347-.128.363-.123.733-.204,1.108-.282.137-.029.424-.004-.049.005.273-.005.545-.037.819-.04,1.255-.015,2.459-1.093,2.4-2.4-.058-1.287-1.055-2.416-2.4-2.4Z"/><path class="h" d="m208.547,29.412c6.151,7.482,9.071,16.697,10.653,26.117,1.901,11.322,3.218,22.731,5.248,34.036,1.73,9.638,4.851,19.749,2.911,29.599-1.783,9.055-7.938,16.154-16.022,20.32-8.615,4.44-18.634,5.617-28.202,5.671-3.088.018-3.094,4.818,0,4.8,9.34-.053,18.862-1.211,27.518-4.882,9.024-3.827,16.576-10.694,20.036-20.007,3.749-10.09,1.477-20.835-.53-31.02-2.359-11.974-4.022-24.069-5.77-36.143-.814-5.624-1.872-11.225-3.799-16.586-2.01-5.592-4.874-10.708-8.648-15.299-.824-1.002-2.54-.854-3.394,0-.991.991-.826,2.39,0,3.394h0Z"/><path class="h" d="m130.659,144.514c-7.872-.024-15.814-1.539-23.106-4.524-6.352-2.601-12.552-6.618-15.585-12.934-4.003-8.336-3.109-18.174-1.685-27.016,1.325-8.228,2.418-16.444,3.346-24.727,1.753-15.66,3.894-32.033,13.017-45.348,8.735-12.75,23.573-20.672,38.497-23.826,8.941-1.89,18.357-1.647,27.313.05,9.092,1.723,18.14,5.109,25.334,11.068,1.788,1.481,3.449,3.103,4.991,4.839,2.055,2.315,5.439-1.09,3.394-3.394-6.657-7.5-15.606-12.499-25.143-15.366-9.344-2.81-19.599-3.943-29.323-3.017-9.414.896-18.551,3.765-26.942,8.098-6.697,3.458-12.956,7.885-17.948,13.567-11.562,13.158-15.186,30.301-17.275,47.2-1.031,8.346-1.733,16.738-3.114,25.038-1.598,9.603-3.333,19.495-.864,29.119,1.083,4.223,2.964,8.233,5.849,11.521,2.514,2.865,5.706,5.169,9.026,7.011,7.384,4.097,15.788,6.299,24.154,7.133,2.016.201,4.039.303,6.065.31,3.089.01,3.093-4.79,0-4.8h0Z"/><path class="f" d="m143.228,222.208c-4.889-15.144-9.413-30.881-13.354-46.541,8.628,4.514,18.417,6.563,28.229,6.299,9.815.264,19.606-1.785,28.235-6.302-3.937,15.661-8.46,31.4-13.35,46.544h-29.761Z"/><path class="e" d="m53.104,222.205c13.15-25.29,36-45.55,62.66-55.8,3.12-2.43,6.39-4.63,9.04-6.36.58-.36,1.32-.06,1.47.6.16.72.33,1.45.5,2.17,4.59,19.84,10.22,40.1,16.45,59.39H53.104Z"/><path class="e" d="m263.104,222.202c-13.15-25.27-35.99-45.54-62.629-55.784-3.136-2.436-6.423-4.649-9.081-6.372-.555-.366-1.319-.063-1.465.596-4.667,20.531-10.485,41.565-16.942,61.562l90.118-.003Z"/><path class="h" d="m130.846,178.818c8.664,3.989,17.768,5.548,27.257,5.548s18.593-1.558,27.257-5.548c1.177-.542,1.47-2.243.861-3.284-.707-1.209-2.102-1.405-3.284-.861-7.872,3.624-16.236,4.893-24.835,4.893s-16.963-1.268-24.835-4.893c-1.177-.542-2.585-.334-3.284.861-.605,1.035-.322,2.739.861,3.284h0Z"/><path class="h" d="m145.538,221.567c-3.295-10.229-6.372-20.528-9.223-30.889-1.433-5.208-2.81-10.431-4.128-15.669-.645-2.566-1.277-5.135-1.893-7.708-.595-2.486-.948-5.195-1.824-7.592-.546-1.494-2.095-2.438-3.68-2.147-1.309.24-2.458,1.24-3.544,1.97-2.449,1.646-4.838,3.37-7.171,5.177l1.697-.703c-1.344,0-2.57,1.368-3.543,2.171-1.063.877-2.103,1.783-3.101,2.733-1.809,1.722-3.54,3.612-4.863,5.742-.592.954-1.228,2.04-1.219,3.191.013,1.676,1.258,2.582,2.573,3.336,2.59,1.485,5.18,2.969,7.772,4.45l-.486-3.769c-2.975,2.781-5.921,5.598-8.704,8.574-1.459,1.561-2.548,3.295-1.912,5.516.524,1.831,1.742,3.619,2.616,5.303,3.859,7.437,7.823,14.82,11.855,22.165,1.487,2.709,5.634.289,4.145-2.423-3.649-6.646-7.24-13.323-10.75-20.043-.846-1.62-1.687-3.242-2.523-4.866-.214-.416-.765-1.384-.746-1.442.177-.553,1.131-1.266,1.516-1.669,2.543-2.664,5.208-5.207,7.898-7.722,1.127-1.054.822-3.022-.486-3.769-1.472-.841-2.943-1.683-4.414-2.525-.7-.401-1.4-.802-2.1-1.203-.349-.2-.699-.401-1.048-.601-.179-.103-.917-.723-.727-.369l.328,1.211c.011.283-.188.373.035-.01.146-.252.279-.51.43-.759.255-.421.528-.831.82-1.227.686-.931,1.479-1.788,2.287-2.614,1.872-1.914,3.928-3.637,6.035-5.283l-1.697.703c1.108,0,1.897-.856,2.727-1.475.929-.694,1.87-1.371,2.82-2.036,1.559-1.092,3.256-2.554,5.011-3.303l-1.211.328-.651-.275-.617-1.059c.699,1.782.938,3.862,1.38,5.727.479,2.025.967,4.047,1.464,6.067,1,4.063,2.036,8.118,3.107,12.163,2.165,8.181,4.471,16.325,6.914,24.427,1.358,4.505,2.76,8.996,4.202,13.475.943,2.928,5.579,1.676,4.629-1.276h0Z"/><path class="h" d="m199.456,223.416c4.026-7.347,7.993-14.727,11.848-22.165.879-1.696,2.071-3.467,2.619-5.303.653-2.191-.472-3.981-1.909-5.516-2.784-2.974-5.732-5.789-8.704-8.574l-.486,3.769c1.681-.961,3.361-1.924,5.042-2.886,1.529-.875,3.843-1.687,4.803-3.218,1.764-2.811-1.703-6.491-3.456-8.443-2.466-2.747-5.362-5.088-8.293-7.316-2.642-2.008-5.396-4.2-8.316-5.791-1.528-.833-3.497-.506-4.489.99s-1.133,3.814-1.538,5.541c-.841,3.587-1.712,7.166-2.611,10.739-1.849,7.351-3.816,14.672-5.893,21.962-2.326,8.162-4.792,16.284-7.394,24.362-.949,2.947,3.684,4.209,4.629,1.276,5.147-15.981,9.767-32.134,13.813-48.429.56-2.254,1.108-4.511,1.645-6.771.258-1.086.513-2.173.766-3.26.182-.784.431-2.602.728-2.998l-.861.861c-1.281-.323-1.579-.296-.895.08.221.144.441.288.661.433.461.304.922.609,1.38.917.857.575,1.709,1.159,2.554,1.752,1.881,1.321,3.73,2.687,5.504,4.15,1.732,1.428,3.413,2.932,4.935,4.584.585.634,1.157,1.286,1.658,1.989.283.397.551.804.798,1.225.117.199.229.401.336.607.194.399.202.402.024.01l.328-1.211c.199-.155.172-.152-.08.009-.211.12-.421.24-.632.36-.281.16-.561.32-.842.481-.771.441-1.543.882-2.314,1.324-1.47.842-2.94,1.685-4.411,2.525-1.31.749-1.611,2.714-.486,3.769,2.629,2.465,5.24,4.951,7.735,7.552.435.453,1.484,1.227,1.677,1.839-.057-.18-.053.018-.108.181-.139.413-.446.872-.646,1.261-.834,1.625-1.675,3.247-2.52,4.866-3.508,6.72-7.102,13.395-10.744,20.043-1.485,2.71,2.658,5.135,4.145,2.423h0Z"/><path class="h" d="m55.176,223.416c10.127-19.393,25.826-35.661,44.696-46.703,2.679-1.568,5.419-3.031,8.213-4.383,1.396-.675,2.806-1.323,4.228-1.943.58-.253,1.162-.499,1.748-.739.299-.122.598-.244.898-.364.15-.06,1.527-.48.815-.48,3.089,0,3.094-4.8,0-4.8-1.234,0-2.755.914-3.885,1.386-1.384.579-2.76,1.175-4.122,1.802-2.585,1.188-5.126,2.47-7.617,3.843-4.989,2.747-9.778,5.854-14.328,9.279-9.245,6.96-17.453,15.12-24.442,24.343-3.899,5.146-7.36,10.614-10.348,16.336-1.428,2.735,2.713,5.165,4.145,2.423h0Z"/><path class="h" d="m199.826,168.729c20.249,7.823,38.333,21.587,51.325,38.975,3.709,4.964,7.012,10.22,9.881,15.712,1.431,2.739,5.575.315,4.145-2.423-10.548-20.192-27.061-37.177-46.74-48.611-5.546-3.222-11.352-5.971-17.335-8.282-1.209-.467-2.633.515-2.952,1.676-.372,1.356.462,2.483,1.676,2.952h0Z"/><path class="h" d="m151.233,128.758c.371-.196.744-.384,1.124-.561.08-.037.475-.192.11-.051-.391.152.108-.038.148-.052.274-.098.548-.196.827-.281.753-.231,1.524-.396,2.302-.518-.34.053.127-.015.248-.028.226-.024.453-.045.68-.062.549-.041,1.098-.061,1.648-.064,1.932-.012,3.128.079,4.927.642.318.1.627.22.939.336-.56-.21.063.04.267.148.192.101.381.208.564.324.195.123.829.604.111.045,1.021.796,2.398.996,3.394,0,.829-.829,1.028-2.593,0-3.394-2.813-2.192-6.373-2.877-9.883-2.9-3.464-.022-6.765.654-9.828,2.272-1.146.605-1.495,2.199-.861,3.284.679,1.16,2.133,1.468,3.284.861h0Z"/><path class="e" d="m48.359,134.101c-1.67,1.043-3.233,1.451-4.645,1.212-.834-.14-1.597-.433-2.267-.868-2.387-1.552-4.864-5.293-6.975-10.535-2.715-6.742-1.211-11.367.529-16.723.407-1.253.829-2.549,1.201-3.899.795-2.778.37-5.543-1.199-7.78-1.471-2.098-3.834-3.452-6.319-3.624-2.197-.26-4.533.287-6.543,1.544s-3.542,3.142-4.2,5.171c-1.283,3.352-1.148,6.822-.845,9.771.077.749.06,2.213-.918,3.609-.53.758-1.303,1.475-2.176,2.02-.961.6-2.008.98-3.028,1.099-2.737.318-4.846-.959-6.446-3.903-1.685-3.102-2.414-6.885-2.053-10.652.708-7.388,5.763-15.034,12.877-19.48,4.042-2.526,10.553-5.132,18.621-3.208,5.687,1.356,10.911,5.221,13.975,10.338,2.796,4.67,3.606,10.006,2.283,15.025-.835,3.168-1.618,5.48-2.309,7.519-.408,1.205-.76,2.245-1.064,3.286-.738,2.529-.411,5.493.855,7.735l.536.943c.87,1.525,1.621,2.842,2.274,4.387.362.857.597,2.32.303,3.657-.294,1.338-1.192,2.562-2.465,3.357Z"/><path class="e" d="m60.061,153.796c-2.039,1.274-4.495,1.5-6.573.605-3.257-1.586-4.482-5.042-3.993-7.631.317-1.677,1.398-3.165,3.126-4.305l.127-.082c.808-.505,3.669-2.055,6.557-.796,3.067,1.337,4.801,5.195,3.788,8.426-.475,1.515-1.552,2.858-3.032,3.783Z"/><path class="h" d="m47.148,132.029c-1.329.793-2.691,1.303-4.147.549-.819-.424-1.749-1.405-2.462-2.353-2.133-2.834-3.827-6.376-4.691-9.811-.796-3.165-.419-6.27.464-9.37.998-3.505,2.823-7.137,2.672-10.848-.153-3.758-2.154-7.249-5.388-9.198-3.341-2.013-7.595-1.993-11.105-.451s-5.912,4.464-7.095,8.07c-.617,1.88-.87,3.902-.9,5.876-.025,1.591.454,3.371.205,4.938-.405,2.553-4.087,4.002-6.037,2.94-1.233-.672-1.987-2.106-2.54-3.341-.714-1.594-1.151-3.374-1.283-5.114-.503-6.65,2.806-12.965,7.507-17.485,4.567-4.391,10.671-7.106,17.065-6.822,6.794.302,13.136,4.106,16.573,9.984,1.837,3.142,2.687,6.702,2.404,10.334-.26,3.342-1.613,6.705-2.679,9.863-1.23,3.64-2.295,7.182-1.022,10.994.395,1.184.99,2.254,1.603,3.332.79,1.389,1.972,3.008,2.227,4.618.213,1.346-.236,2.534-1.37,3.293-2.555,1.709-.154,5.869,2.423,4.145,3.696-2.473,4.623-6.729,2.842-10.713-1.312-2.935-3.616-5.507-3.541-8.874.042-1.892.868-3.748,1.467-5.52.559-1.653,1.101-3.311,1.588-4.987,1.216-4.183,1.733-8.287.745-12.583-1.791-7.786-7.823-14.115-15.147-17.029-7.231-2.877-15.547-1.904-22.259,1.855-6.533,3.659-11.804,9.869-14.134,17.005-1.247,3.819-1.478,7.93-.625,11.859.766,3.527,2.589,7.752,5.995,9.47,3.627,1.829,8.185.606,10.86-2.345,1.392-1.536,2.223-3.502,2.155-5.594-.06-1.852-.306-3.654-.166-5.515.278-3.69,1.938-7.17,5.596-8.498,3.241-1.177,7.027-.164,8.611,3.056,1.686,3.427-.476,7.448-1.506,10.768-1.114,3.593-1.771,7.238-1.246,10.996.578,4.137,2.456,8.263,4.674,11.779,1.911,3.03,4.468,5.969,8.234,6.41,2.088.244,4.084-.482,5.857-1.54,2.651-1.581.239-5.732-2.423-4.145Z"/><path class="h" d="m58.85,151.723c-.198.12-.404.224-.603.34-.06.035-.419.199-.049.039-.339.146-.708.253-1.068.336-.144.033-.289.061-.434.087.535-.097-.16.005-.235.008-.362.016-.728.008-1.087-.036.556.068-.145-.049-.216-.066-.141-.035-.28-.074-.418-.118-.004-.001-.61-.274-.316-.112.3.166-.265-.166-.257-.161-.113-.067-.225-.137-.334-.21-.01-.007-.502-.391-.224-.154s-.183-.172-.19-.179c-.136-.126-.267-.257-.393-.393-.104-.112-.199-.23-.299-.345-.235-.269.289.473,0-.019-.15-.254-.314-.495-.45-.758-.037-.072-.15-.245-.152-.313.01.412.094.263.015.017-.094-.295-.192-.585-.26-.888-.03-.132-.04-.276-.078-.405-.097-.329.033.607.015.074-.009-.265-.029-.525-.02-.791.004-.103.015-.206.018-.309.018-.502-.142.395-.017.112.127-.288.171-.675.267-.985-.151.487-.043.1.028-.038.073-.144.152-.285.236-.422.069-.112.144-.218.216-.328-.296.454.063-.073.127-.144.21-.235.437-.455.674-.663.081-.071.456-.351.115-.105.143-.103.288-.205.437-.3.297-.19.608-.347.922-.508.206-.106.291-.276-.067.019.063-.052.238-.093.324-.124.359-.129.727-.236,1.101-.313.133-.028.268-.054.403-.073-.578.082.131.011.211.009.148-.004.294.005.442.004.667-.007-.233-.085.156.003.355.08.705.158,1.045.291-.454-.177.087.06.15.095.159.087.309.189.465.283.36.216.022.003-.048-.054.141.115.278.233.41.357.199.188.372.398.559.597.247.264-.307-.468.012.022.067.102.136.202.201.306.097.156.188.315.273.477.064.122.283.64.067.093.124.314.232.632.316.959.038.148.066.299.101.448.138.584-.022-.51.016.088.021.336.034.669.014,1.006-.03.515-.028-.001.017,0,.005,0-.104.517-.11.54-.038.152-.082.301-.131.449-.189.57.13-.144-.1.255-.169.292-.331.583-.519.864.296-.441-.081.092-.138.155-.14.155-.286.304-.438.446-.103.096-.21.187-.316.28.377-.326-.3.2-.385.255-1.054.679-1.584,2.162-.861,3.284.68,1.054,2.155,1.588,3.284.861,3.484-2.243,5.271-6.225,4.172-10.293-1.03-3.813-4.395-6.834-8.435-6.869-3.458-.03-7.022,1.969-8.827,4.908s-1.464,6.916.499,9.698c1.294,1.834,3.179,3.326,5.411,3.798,2.475.524,5.016.066,7.179-1.241,1.074-.649,1.571-2.183.861-3.284-.696-1.079-2.134-1.556-3.284-.861Z"/><path class="e" d="m106.229,170.509c1.138-4.94,2.599-9.515,4.431-13.319,4.278-8.883,10.646-11.75,20.127-13.044,4.57-.624,9.325-.21,13.589,1.546,4.808,1.979,8.617,6.236,5.967,11.847,4.109.904,5.835,3.544,5.673,6.87-.088,1.802-1.324,5.096-4.407,5.725l-.524.107c2.652,1.296,3.087,3.636,3.129,5.21.075,2.79-2.417,5.764-4.724,5.505-1.668-.187-3.03-.337-4.291-.451.837.467,1.311.732,1.311.732,1.586.885,2.557,2.769,2.67,4.156.119,1.46-.217,3.005-1.054,4.183-1.319,1.856-3.558,1.962-5.485,2.18-2.518.285-4.798.948-5.642,3.306-.328.916-1.585,6.886-2.069,8.645-.973,3.539-2.53,7.004-5.123,9.665-2.593,2.661-6.334,4.434-10.139,4.143,0,0-1.561-.12-2.723-.208-5.988-2.485-14.098-6.303-16.047-9.306-2.178-3.355,1.976-9.992,2.322-15.596.448-7.263,1.409-14.941,3.011-21.897Z"/><path class="h" d="m152.997,157.371c1.085-3.116.654-6.485-1.332-9.141-2.059-2.754-5.103-4.423-8.326-5.464-6.632-2.143-14.247-1.472-20.792.736-5.607,1.892-10.092,5.531-13.023,10.688-3.426,6.028-5.197,13.057-6.473,19.818-.724,3.838-1.262,7.715-1.669,11.599-.364,3.477-.343,7.011-1.269,10.398-.833,3.048-2.151,6.106-2.241,9.305-.083,2.94,1.464,4.968,3.69,6.676,2.544,1.952,5.435,3.43,8.322,4.804,1.537.731,3.092,1.424,4.658,2.091.943.401,1.736.765,2.759.855.697.061,1.396.11,2.094.16,7.556.544,13.605-4.894,16.42-11.488,1.099-2.574,1.732-5.239,2.351-7.956.269-1.181.531-2.364.819-3.541.154-.628.261-1.357.746-1.805.883-.815,2.437-.893,3.56-1.02,1.64-.185,3.311-.393,4.759-1.255,3.115-1.856,4.347-6.257,3.052-9.572-.67-1.714-1.81-3.127-3.383-4.093-2.639-1.622-5.053,2.528-2.423,4.145,1.794,1.103,2.281,4.536.036,5.536-.936.417-2.052.429-3.052.554-1.545.194-3.055.481-4.442,1.232-2.151,1.166-3.055,3.206-3.592,5.46-.497,2.087-.935,4.189-1.452,6.271-1.378,5.552-4.51,11.298-10.547,12.61-1.06.23-2.132.177-3.206.095-.525-.04-1.24.017-1.741-.133-.599-.179-1.318-.619-1.921-.885-2.747-1.21-5.473-2.497-8.069-4.006-.956-.556-1.992-1.181-2.83-1.821-.424-.324-.82-.686-1.195-1.065.027.027-.468-.548-.258-.273.225.295-.35-.62-.16-.203-.331-.728-.24-1.536-.081-2.44.25-1.42.706-2.806,1.128-4.181.965-3.141,1.581-6.114,1.819-9.396.241-3.323.571-6.645,1.045-9.943.915-6.373,2.224-12.765,4.471-18.814,1.724-4.64,4.213-9.207,8.479-11.859,2.228-1.385,4.647-2.203,7.209-2.79,3.309-.759,6.694-1.173,10.09-.895,4.946.404,13.627,3.162,11.34,9.73-.426,1.224.486,2.625,1.676,2.952,1.322.363,2.524-.448,2.952-1.676h0Z"/><path class="h" d="m133.906,157.884c3.215.218,6.437.453,9.631.887,1.33.181,2.656.402,3.976.648,1.231.229,2.653.422,3.743.909.499.223.975.544,1.2.753.183.17.365.35.518.548-.219-.282.182.321.182.321.42.74.479,1.433.458,2.459-.011.559.147-.481-.007.125-.054.212-.091.427-.15.638-.188.663-.161.608-.528,1.218-.452.752-.986,1.2-1.959,1.429-3.005.709-1.733,5.339,1.276,4.629,6.478-1.529,8.247-10.843,3.311-15.015-2.717-2.297-6.509-2.664-9.903-3.17-3.897-.581-7.819-.914-11.748-1.181-1.295-.088-2.4,1.166-2.4,2.4,0,1.372,1.102,2.312,2.4,2.4h0Z"/><path class="h" d="m133.613,170.245c3.049.158,6.095.395,9.127.745,1.415.163,2.826.36,4.228.609,1.309.232,2.57.459,3.566,1.085.053.033.365.279.084.047.085.07.172.146.248.225.094.098.511.621.243.232.113.164.213.333.313.504.064.11.116.228.17.343-.083-.177-.097-.315-.039-.055.045.202.121.398.166.6.039.171.098.785.04.108.038.44.098.901.032,1.342-.109.735-.81,1.855-1.396,2.263-.143.099-.302.18-.455.261.051-.027.24-.098-.014-.015-.253.082-.034.03.04.025-.162.009-.316.001-.479-.009-.838-.051-1.677-.188-2.513-.276-3.374-.354-6.733-.483-10.125-.431-3.086.047-3.095,4.847,0,4.8,3.505-.054,6.972.095,10.458.467,1.893.202,3.547.453,5.285-.539,1.663-.949,2.847-2.587,3.522-4.346.93-2.421.545-5.523-.983-7.631-2.142-2.955-5.711-3.495-9.089-3.982-4.122-.594-8.273-.959-12.431-1.175-1.296-.067-2.4,1.151-2.4,2.4,0,1.356,1.1,2.332,2.4,2.4h0Z"/></g></g></svg>